Coordinates
nRows=252
nColumns=2
inDegrees=yes
endheader
time	ankle_angle_r	
3.42641	 18.575460	
3.45968	 18.514233	
3.49294	 18.585205	
3.52621	 18.453039	
3.55948	 18.559946	
3.59274	 18.482941	
3.62601	 18.488199	
3.65927	 18.554688	
3.69254	 18.569946	
3.72581	 18.482166	
3.75907	 18.575785	
3.79234	 18.533493	
3.8256	 18.518137	
3.85887	 18.539429	
3.89214	 18.533203	
3.9254	 18.441553	
3.95867	 18.550688	
3.99194	 18.561203	
4.0252	 18.447876	
4.05847	 18.578495	
4.09173	 18.510557	
4.125	 18.525623	
4.15827	 18.507650	
4.19153	 18.516006	
4.2248	 18.500845	
4.25806	 18.500261	
4.29133	 18.455748	
4.3246	 18.485876	
4.35786	 18.478394	
4.39113	 18.478394	
4.4244	 18.409586	
4.45766	 18.508430	
4.49093	 18.486361	
4.52419	 18.486456	
4.55746	 18.478394	
4.59073	 18.569946	
4.62399	 18.539429	
4.65726	 18.524170	
4.69052	 18.508911	
4.72379	 18.410742	
4.75706	 18.502392	
4.79032	 18.548265	
4.82359	 18.402100	
4.85685	 18.526972	
4.89012	 18.484526	
4.92339	 18.463135	
4.95665	 18.579266	
4.98992	 18.585205	
5.02319	 18.503166	
5.05645	 18.472744	
5.08972	 18.554688	
5.12298	 18.560143	
5.15625	 18.524170	
5.18952	 18.493652	
5.22278	 18.549522	
5.25605	 18.493599	
5.28931	 18.534456	
5.32258	 18.488777	
5.35585	 18.549910	
5.38911	 18.605146	
5.42238	 18.421944	
5.45565	 18.551992	
5.48891	 18.559080	
5.52218	 18.432617	
5.55544	 18.508911	
5.58871	 18.410303	
5.62198	 18.443871	
5.65524	 18.489744	
5.68851	 18.444052	
5.72177	 18.424789	
5.75504	 18.417358	
5.78831	 18.463135	
5.82157	 18.420784	
5.85484	 18.463135	
5.8881	 18.502447	
5.92137	 18.463135	
5.95464	 18.447876	
5.9879	 18.493652	
6.02117	 18.435463	
6.05444	 18.453373	
6.0877	 18.417358	
6.12097	 18.432617	
6.15423	 18.417358	
6.1875	 18.513634	
6.22077	 18.417358	
6.25403	 18.482729	
6.2873	 18.598392	
6.32056	 18.522196	
6.35383	 18.466890	
6.3871	 18.478394	
6.42036	 18.449560	
6.45363	 18.536253	
6.4869	 18.481377	
6.52016	 18.522776	
6.55343	 18.493652	
6.58669	 18.491249	
6.61996	 18.432617	
6.65323	 18.478394	
6.68649	 18.569035	
6.71976	 18.447062	
6.75302	 18.476957	
6.78629	 18.491789	
6.81956	 18.433142	
6.85282	 18.463991	
6.88609	 18.493984	
6.91935	 18.493887	
6.95262	 18.478531	
6.98589	 18.524170	
7.01915	 18.539484	
7.05242	 18.569641	
7.08569	 18.524170	
7.11895	 18.493652	
7.15222	 18.478394	
7.18548	 18.540506	
7.21875	 18.540064	
7.25202	 18.463135	
7.28528	 18.539429	
7.31855	 18.478394	
7.35181	 18.566879	
7.38508	 18.478394	
7.41835	 18.447876	
7.45161	 18.510223	
7.48488	 18.582386	
7.51815	 18.507404	
7.55141	 18.553085	
7.58468	 18.463135	
7.61794	 18.478394	
7.65121	 18.526062	
7.68448	 18.497631	
7.71774	 18.526257	
7.75101	 18.526352	
7.78427	 18.541708	
7.81754	 18.491276	
7.85081	 18.511383	
7.88407	 18.488672	
7.91734	 18.521503	
7.9506	 18.549162	
7.98387	 18.499371	
8.01714	 18.496609	
8.0504	 18.573000	
8.08367	 18.524170	
8.11694	 18.488132	
8.1502	 18.478394	
8.18347	 18.492153	
8.21673	 18.463135	
8.25	 18.543062	
8.28327	 18.432617	
8.31653	 18.463135	
8.3498	 18.524170	
8.38306	 18.390862	
8.41633	 18.459019	
8.4496	 18.463135	
8.48286	 18.417358	
8.51613	 18.452282	
8.5494	 18.437120	
8.58266	 18.441816	
8.61593	 18.483089	
8.64919	 18.478394	
8.68246	 18.442396	
8.71573	 18.478394	
8.74899	 18.493643	
8.78226	 18.498833	
8.81552	 18.478394	
8.84879	 18.499025	
8.88206	 18.467453	
8.91532	 18.407667	
8.94859	 18.455271	
8.98185	 18.463135	
9.01512	 18.505365	
9.04839	 18.444525	
9.08165	 18.499702	
9.11492	 18.475428	
9.14819	 18.499895	
9.18145	 18.447876	
9.21472	 18.414974	
9.24798	 18.502378	
9.28125	 18.463135	
9.31452	 18.424086	
9.34778	 18.461523	
9.38105	 18.492235	
9.41431	 18.524170	
9.44758	 18.547573	
9.48085	 18.485603	
9.51411	 18.500315	
9.54738	 18.501507	
9.58065	 18.417358	
9.61391	 18.485991	
9.64718	 18.432617	
9.68044	 18.432940	
9.71371	 18.501024	
9.74698	 18.508911	
9.78024	 18.470312	
9.81351	 18.471312	
9.84677	 18.456150	
9.88004	 18.425730	
9.91331	 18.478394	
9.94657	 18.469830	
9.97984	 18.364985	
10.0131	 18.426115	
10.0464	 18.480843	
10.0796	 18.380533	
10.1129	 18.450712	
10.1462	 18.447876	
10.1794	 18.469152	
10.2127	 18.447876	
10.246	 18.524170	
10.2792	 18.436420	
10.3125	 18.472763	
10.3458	 18.528360	
10.379	 18.463135	
10.4123	 18.478394	
10.4456	 18.382071	
10.4788	 18.452839	
10.5121	 18.442825	
10.5454	 18.514261	
10.5786	 18.437475	
10.6119	 18.463135	
10.6452	 18.483057	
10.6784	 18.382273	
10.7117	 18.382370	
10.745	 18.504538	
10.7782	 18.452154	
10.8115	 18.439514	
10.8448	 18.424448	
10.878	 18.432617	
10.9113	 18.428726	
10.9446	 18.489859	
10.9778	 18.432617	
11.0111	 18.420959	
11.0444	 18.474890	
11.0776	 18.447876	
11.1109	 18.417358	
11.1442	 18.466349	
11.1774	 18.530405	
11.2107	 18.432617	
11.244	 18.527094	
11.2772	 18.490826	
11.3105	 18.450607	
11.3437	 18.493652	
11.377	 18.493652	
11.4103	 18.493652	
11.4435	 18.508911	
11.4768	 18.526417	
11.5101	 18.388990	
11.5433	 18.602518	
11.5766	 18.413445	
11.6099	 18.461275	
11.6431	 18.373346	
11.6764	 18.420692	
11.7097	 18.435759	
11.7429	 18.464609	
11.7762	 18.525547	
